# xmcd
#
# Track frame offsets:
#	150
#	18718
#	31933
#	50325
#	75902
#	102850
#	126277
#	142730
#	159647
#	175209
#	192935
#
# Disc length: 2780 seconds
#
# Revision: 1
# Processed by: cddbd v1.5.2PL0 Copyright (c) Steve Scherf et al.
# Submitted via: audiograbber 1.83.01
#
DISCID=840ada0b
DTITLE=Getocowboys - Hard Luck Symphony
DYEAR=2008
DGENRE=Country-Rock
TTITLE0=Hello My Friends
TTITLE1=Ride Home
TTITLE2=Harvested Field
TTITLE3=Sometimes (Words Aren't Enough)
TTITLE4=Don't Touch
TTITLE5=Crazy
TTITLE6=Galvanized
TTITLE7=Small Town Air
TTITLE8=Place To Start
TTITLE9=Home Town Nothing
TTITLE10=Perfect Thief
EXTD=
EXTT0=
EXTT1=
EXTT2=
EXTT3=
EXTT4=
EXTT5=
EXTT6=
EXTT7=
EXTT8=
EXTT9=
EXTT10=
PLAYORDER=
